# xmcd
#
# Track frame offsets:
#	150
#	19245
#	31979
#	46976
#	82351
#	110756
#	126430
#	139425
#	157386
#
# Disc length: 2287 seconds
#
# Revision: 0
# Processed by: cddbd v1.5.2PL0 Copyright (c) Steve Scherf et al.
# Submitted via: EZCDAudioConverter 2.1.7.1
#
DISCID=8b08ed09
DTITLE=Jah Wobble - Redux 6/6
DYEAR=1900
DGENRE=
TTITLE0=Java
TTITLE1=Theme From Midnight Cowboy
TTITLE2=Theme From The Sweeney
TTITLE3=Liquidator
TTITLE4=Theme From Get Carter
TTITLE5=Comin' Home Baby
TTITLE6=Theme From The Persuaders
TTITLE7=Take Five
TTITLE8=Theme From The Good, The Bad and The Ugly
EXTD=
EXTT0=
EXTT1=
EXTT2=
EXTT3=
EXTT4=
EXTT5=
EXTT6=
EXTT7=
EXTT8=
PLAYORDER=
